<?xml version="1.0" encoding="UTF-8"?>
<svg id="Layer_1" data-name="Layer 1" xmlns="http://www.w3.org/2000/svg" viewBox="0 0 1020.31 858.77">
  <defs>
    <style>
      .cls-1 {
        font-family: SailorsCondensed, 'Sailors Condensed';
        font-size: 193.57px;
      }

      .cls-2 {
        letter-spacing: -.09em;
      }

      .cls-3 {
        letter-spacing: -.05em;
      }
    </style>
  </defs>
  <text class="cls-1" transform="translate(1.17 836.9)"><tspan x="0" y="0">Pel</tspan><tspan class="cls-3" x="270.42" y="0">a</tspan><tspan x="375.72" y="0">go</tspan><tspan class="cls-2" x="642.47" y="0">P</tspan><tspan x="722.41" y="0">ass</tspan></text>
  <path d="M139.56,145.63c-3.48-10.68-18.58-15.06-28.19-15.58-25.09-1.35-43.67,21.97-46.73,25.96-13.66,17.78-6.92,26.24-20.77,41.54-14.14,15.61-25.37,11.45-33.38,25.22-7.73,13.29-7.38,34.58,4.45,45.99,15.59,15.04,44.23,6.28,58.6-5.93,8.77-7.45,12.79-16.69,17.8-28.19,9.57-21.95,4.58-28.58,14.09-40.8,8.48-10.88,14.52-8.29,24.48-21.51,4.93-6.55,12.8-17,9.64-26.7ZM108.85,180.18c-1.48,2.22-3.17,4.09-4.37,5.42-3.77,4.18-6.02,5.56-10.84,10.01-4.41,4.07-6.61,6.1-7.32,7.39-3.62,6.58.64,11.77-.1,20.33-.9,10.41-8.52,17.62-10.47,19.54-8.95,8.78-27.54,15.94-38.59,6.71-8.39-7.01-9.62-21.11-5.13-30.29,4.66-9.52,12.31-7.28,20.95-18.31,1.88-2.4,3.1-4.53,3.96-6.52,4.91-11.48,4.79-15.8,7.85-22.02,6.84-13.9,25.63-16.97,28.53-17.44,5.23-.85,15.98-2.61,20,3,4.3,5.99-1.25,17.37-4.47,22.18Z"/>
  <path d="M429.31,153c-22.43-27.14-35.61-42.59-56-44-16.45-1.13-30.16,7.39-44,16-15.15,9.42-24.44,19.78-37,34-13.35,15.12-15,19.57-30,39-32.49,42.07-40.69,41.75-45,59-4.56,18.27-1.5,43.16,14,58,16.33,15.63,39.53,13.47,66,11,13.07-1.22,58.75-6.7,112-43,33.38-22.76,56.08-38.23,58-63,1.49-19.23-11.67-35.15-38-67ZM427.63,226.67c-1.48,19.09-18.98,31.02-44.72,48.57-41.06,27.99-76.28,32.22-86.36,33.16-20.41,1.9-38.3,3.57-50.89-8.49-11.95-11.43-14.31-30.63-10.79-44.72,3.32-13.3,9.64-13.05,34.69-45.49,11.57-14.98,12.84-18.41,23.14-30.07,9.68-10.96,16.84-18.95,28.52-26.21,10.68-6.64,21.25-13.22,33.93-12.34,15.73,1.08,25.88,13,43.18,33.92,20.3,24.56,30.45,36.84,29.3,51.67Z"/>
  <path d="M619.31,124.31c-18.05-9.67-43.52-3.94-61,0-17.96,4.04-43.84,9.87-55,31.47-3.38,6.56-4.25,12.32-5,17.26-4.01,26.59,9.43,38.38,10,56.86,1.12,36.2-48.17,64.42-51,65.99-6.19,3.44-13.75,6.05-13.75,6.05-11.82,4.49-21.19,6.3-30.25,8.06-23.6,4.57-35.39,6.86-36,7-2.97.7-32.06,7.96-54,31-5.23,5.49-33.55,36.55-28,73.79,8.08,54.25,81.06,74.54,87,76.15,60.19,16.27,112.66-15.51,139-31.47,13.52-8.19,60.01-38.17,93-99.5,48.43-90.04,51.62-217.68,5-242.65ZM610.3,334.79c-19.23,43.65-49.92,67.06-58.88,73.52-17.45,12.57-52.22,37.62-95.46,30.73-10.14-1.61-54.34-10.34-65.86-45.47-8.45-25.77,6.2-48.89,7.26-50.51,9.04-13.79,22.65-18.77,46.19-28.01,30.61-12.03,36.23-6.92,52.12-17.52,2.02-1.35,30.09-19.95,31.56-48.03.55-10.52-3.28-9.95-4.92-31.48-1.05-13.84-1.51-20.88,2-27,5.37-9.36,16.03-12.28,31.26-16.22,17.45-4.51,32.07-8.43,42.77-4.16,34.29,13.69,40.18,100.08,11.96,164.17Z"/>
  <path d="M823.31,475c-12.9-20-38.23-23.51-49-25-21.19-2.93-27.3,3.57-57,5-20.44.99-20.36-1.96-54-4-41.43-2.52-62.15-3.77-87,4-28.1,8.79-45.08,23.52-50,28-9.61,8.75-18.22,16.59-23,29-13.48,35,16.06,73.86,23,83,6.47,8.51,28.29,37.23,66,45,19.6,4.04,40-1.92,80-14,45.06-13.61,69.04-20.86,98-40,24.84-16.42,50.49-33.91,58-65,1.54-6.36,6.73-27.82-5-46ZM776.43,528.87c-5.7,21.56-25.14,33.69-43.98,45.07-21.97,13.28-40.16,18.3-74.33,27.74-30.33,8.38-45.81,12.51-60.67,9.71-28.6-5.39-45.15-25.31-50.06-31.21-5.26-6.33-27.66-33.28-17.44-57.55,3.62-8.6,10.16-14.04,17.44-20.1,3.74-3.11,16.62-13.32,37.92-19.42,18.85-5.39,34.56-4.52,65.99-2.77,25.51,1.41,25.45,3.45,40.95,2.77,22.53-.99,27.16-5.5,43.23-3.47,8.17,1.04,27.38,3.47,37.16,17.34,8.89,12.6,4.96,27.49,3.79,31.89Z"/>
  <path d="M969.31,377c-3.95-37.85,5.37-55.96,13-100,9.86-56.87,4.95-88.01,0-107-5.64-21.62-13.1-34.2-25-40-10.89-5.3-22.53-3.48-35,0-47.83,13.34-83.15,44.06-100,60-30.21,28.57-45.31,42.86-55,66-2.49,5.94-23.71,58.82,0,109,13.46,28.48,24.46,20.27,59,64,26.72,33.84,51.81,65.59,51,106-.38,18.91-6.19,27.99,0,45,7.07,19.44,26.27,39.23,46,38,4.77-.3,15.57-2.28,30-21,46.84-60.78,26.95-161.8,21-192-2.26-11.48-3.81-16.62-5-28ZM947.76,533.95c-9.67,15.14-17.71,17.36-21.3,17.91-14.84,2.25-30.7-11.44-37.35-25.68-5.83-12.46-2.04-19.72-3.02-34.05-2.1-30.64-23.21-52.99-45.7-76.8-29.06-30.78-36.84-23.83-48.93-44.48-21.31-36.39-8.79-77.83-7.31-82.49,5.79-18.16,16.26-29.99,37.2-53.63,11.69-13.19,36.36-38.81,71.66-52.11,9.2-3.47,17.89-5.63,26.49-2.34,9.39,3.58,15.88,12.6,21.6,28.59,5.02,14.04,10.81,37.28,7.16,80.97-2.82,33.85-8.66,48.17-3.13,76.55,1.66,8.54,3.18,12.32,5.66,20.86,6.52,22.45,28.34,97.57-3.03,146.7Z"/>
  <path d="M99.31,443c-2.82-3.29-4.92-3.51-22-10-20.51-7.79-22.42-9.34-24-11-7.2-7.54-4.05-13.39-12-20-7.29-6.06-15.81-6.02-17-6-1.46.03-11.64.38-18,8-2.34,2.8-3.84,6.19-5,20-1.39,16.54-2.08,24.82,0,32,4.22,14.54,13.87,23.17,16,25,13.17,11.35,28.1,12.3,39,13,10.41.67,20.65,1.32,31-5,3.1-1.89,12.62-7.91,16-20,.37-1.31,4.33-16.26-4-26ZM84.02,457.58c-.19,7.12-4.59,11.75-6.04,13.22-4.81,4.91-10.53,5.97-16.35,7.04-6.09,1.13-14.44,2.67-23.26-1.75-1.42-.71-7.93-4.12-12.26-11.53-2.14-3.66-2.9-8.31-4.43-17.6-1.28-7.76-.92-9.83-.02-11.69,2.44-5.08,7.99-6.68,8.79-6.9.65-.18,5.33-1.38,10.18.95,5.29,2.53,4.37,6.19,9.37,9.34,1.1.69,2.37,1.28,14.73,2.72,10.29,1.2,11.48,1.03,13.48,2.45,5.93,4.21,5.83,12.98,5.81,13.75Z"/>
  <path d="M39.31,536c5.33-15.01,7.65-19.9,13-24,1.46-1.12,8.2-6.06,17-6,14.17.1,24.69,13.08,29,18,0,0,23.58,25.86,67,42,30.09,11.19,64.76,10.31,77,10,0,0,21.05-.53,47,8,5.85,1.92,13.52,4.87,17,12,3.17,6.5,1.69,14.09,0,18-12.23,28.32-103.75,21.21-133,16-3.92-.7-16.58-3.12-34-4-14.87-.75-17.8.39-27,0-10.3-.43-40.94-3.31-64-25-7.48-7.03-17.72-16.67-19-31-.42-4.66,3.06-14.44,10-34Z"/>
  <path d="M422.31,594c-1.92-4.29-7.85-18.07-3-33,1.28-3.95,4.35-13.4,12-16,4.67-1.59,9.78.28,20,4,9.68,3.53,10.3,5.28,16,6,8.25,1.04,9.56-2.31,16-1,7.77,1.58,14.17,8.15,17,15,3.31,8.03,1.3,15.44,0,20-3.89,13.6-17.62,37.3-40,37-23.83-.32-36.02-27.57-38-32Z"/>
  <path d="M155.31,342c.03-7.77,11.35-13.21,13-14,1.56-.75,14.87-7.15,23,0,5.4,4.74,5.07,12.42,5,14-.27,6.22-3.51,12.93-9,16-12.05,6.73-32.04-5.65-32-16Z"/>
  <path d="M209.31,384c6.17-7.49,17.19-13.17,29-12,2.41.24,14.58,1.72,22,12,6.81,9.42,5.19,20.1,4,28-1.1,7.3-2.72,18-12,26-8,6.9-20.69,10.92-31,7-19.91-7.57-26.7-43.14-12-61Z"/>
  <path d="M671.31,381.41c-1.1-16.17,2.91-31.45,4-35.51,3.48-12.9,5.78-12.45,9-23.3,6.61-22.26-1.05-30.89,4-58.81,2.44-13.51,4.54-24.34,12-27.74,8.33-3.8,20.15,3.12,26,12.2,4.67,7.25,4.64,14.47,4,41.05-.52,21.54-.87,32.11-1,37.72-.95,40.32,3.93,41.88,1,59.91-3.4,20.91-15.16,50.75-29,51.04-14.55.3-28.33-32.13-30-56.59Z"/>
  <path d="M679.31,162c8.55-16.11,23.64-23.12,32-27,3.08-1.43,17.22-7.78,37-8,13.68-.15,26.95-.3,38,9,2.25,1.9,12.78,10.75,13,25,.16,9.92-4.72,20.38-13,26-11.19,7.6-19.08-.08-47,3-14.36,1.58-15.36,3.95-31,5-16.29,1.09-28,1.88-33-5-6.28-8.63,1.88-24.02,4-28Z"/>
  <path d="M820.31,570c11.86-7.18,24.15-4.67,27-4,4.63,1.09,13.68,3.21,18,11,4.9,8.84,1.22,20.48-4,27-13.82,17.26-51.24,14.62-58,0-4.61-9.96,4.56-26.47,17-34Z"/>
  <path d="M368.31,630.29c3.51,2.99,14.61,12.17,29,10.72,2.11-.21,15.38-1.78,20-10.72,4.46-8.63-2.04-18.47-12-38-16.09-31.56-13.49-34.08-20-43.85-15.45-23.19-38.89-22.19-111-42.87-55.85-16.02-84.14-24.36-102-40.92-22.19-20.57-16.67-30.79-49-62.36-22.62-22.09-42.34-33.7-39-43.85,2.33-7.07,13.66-6.69,28-12.67,26.69-11.13,41.75-34.7,48-47.74,12.85-26.81-3.47-32.03,8-65.28,2.3-6.66,14.28-41.37,45-60.41,6.34-3.93,13.3-7.08,25-15.59,11.42-8.3,16.61-13.98,27-25.33,9.51-10.4,11.03-13.81,10-16.56-1.74-4.64-10.16-5.9-15-5.85-12.01.14-20.95,8.68-27,14.62-9.13,8.96-7.19,11.4-15,19.49-10.47,10.85-16.65,9.27-31,19.49-13.97,9.95-21.85,21.23-26,27.28-10.57,15.42-14.63,29.51-17,38-6.82,24.44-.69,26.68-7,43.85-1.9,5.18-10.66,29.01-33,40.92-9.21,4.91-11.36,2.8-36,12.67-17.96,7.19-21.48,10.18-24,13.64-8.52,11.7-4.51,27.25-3,33.13,4.01,15.57,13.85,25.26,19,30.21,18.15,17.44,28.07,11.54,44,26.31,12.75,11.81,7.37,16.48,25,42.87,6.79,10.17,16.33,24.22,33,38,3.39,2.8,17.36,14.09,39,23.38,17.05,7.32,30.89,9.98,50,13.64,26.6,5.1,29.06,2.83,47,7.79,21.28,5.88,31.92,8.83,41,17.54,19.7,18.9,7.3,39.97,29,58.46Z"/>
</svg>