<?xml version="1.0" encoding="UTF-8"?>
<svg id="Layer_1" data-name="Layer 1" xmlns="http://www.w3.org/2000/svg" viewBox="0 0 268.08 45.07">
  <defs>
    <style>
      .cls-1 {
        fill: #fff;
      }
    </style>
  </defs>
  <g>
    <path class="cls-1" d="M65.87,25.04h-2.12c-.33,0-.6.12-.84.35s-.35.51-.35.83v12.19c0,.33-.12.6-.35.83s-.51.35-.84.35h-2.24c-.33,0-.6-.12-.83-.35-.23-.23-.35-.51-.35-.83V5.24c0-.33.12-.6.35-.84.23-.23.51-.35.83-.35h6.72c1.87,0,3.44.52,4.71,1.55,1.26,1.03,2.21,2.33,2.83,3.89.62,1.56.94,3.25.94,5.05s-.31,3.49-.94,5.05c-.63,1.56-1.57,2.86-2.83,3.89-1.26,1.03-2.83,1.55-4.71,1.55ZM65.95,8.66h-2.2c-.33,0-.6.12-.84.35-.23.23-.35.51-.35.84v9.41c0,.33.12.6.35.84.23.23.51.35.84.35h2.2c.84,0,1.55-.29,2.12-.88.57-.58,1-1.31,1.3-2.18.3-.87.45-1.81.45-2.83s-.14-1.96-.43-2.83c-.29-.87-.71-1.6-1.28-2.18-.57-.58-1.29-.88-2.16-.88Z"/>
    <path class="cls-1" d="M91.95,8.66h-7.7c-.33,0-.6.12-.84.35-.23.23-.35.51-.35.84v2.45c0,.33.12.6.35.84.23.23.51.35.84.35h5.09c.35,0,.65.12.88.35.23.23.35.51.35.83v2.2c0,.33-.12.61-.35.86-.23.24-.52.37-.88.37h-5.09c-.33,0-.6.12-.84.35-.23.23-.35.51-.35.84v14.55c0,.33.12.61.35.84.23.23.51.35.84.35h7.7c.33,0,.6.12.84.35.23.23.35.51.35.84v2.24c0,.33-.12.6-.35.83s-.51.35-.84.35h-12.31c-.33,0-.6-.12-.83-.35-.23-.23-.35-.51-.35-.83V5.24c0-.33.12-.6.35-.84.23-.23.51-.35.83-.35h12.31c.33,0,.6.12.84.35.23.23.35.51.35.84v2.24c0,.33-.12.6-.35.84s-.51.35-.84.35Z"/>
    <path class="cls-1" d="M109.63,34.99c.33,0,.6.12.84.35.23.23.35.51.35.84v2.24c0,.33-.12.6-.35.83s-.51.35-.84.35h-11.25c-.33,0-.6-.12-.83-.35-.23-.23-.35-.51-.35-.83V5.24c0-.33.12-.6.35-.84.23-.23.51-.35.83-.35h2.24c.33,0,.6.12.84.35.23.23.35.51.35.84v28.57c0,.33.12.61.35.84.23.23.51.35.84.35h6.64Z"/>
    <path class="cls-1" d="M130.34,38.53c-.08-.38-.2-.9-.35-1.55-.15-.65-.35-1.55-.59-2.69-.08-.3-.22-.55-.43-.75-.2-.2-.46-.31-.75-.31h-6.52c-.3,0-.55.1-.75.31-.2.2-.35.46-.43.75-.35,1.74-.67,3.15-.94,4.24-.08.3-.22.55-.43.75s-.44.31-.71.31h-2.32c-.38,0-.69-.18-.94-.55-.24-.37-.31-.78-.2-1.24.27-1.2.61-2.71,1.02-4.54.41-1.83.86-3.81,1.34-5.93.49-2.12.98-4.3,1.49-6.54.5-2.24.98-4.37,1.43-6.4.45-2.02.86-3.85,1.24-5.48.38-1.63.67-2.89.86-3.79.05-.3.19-.55.41-.75.22-.2.46-.31.73-.31h2.93c.27,0,.52.1.73.31.22.2.35.46.41.75.95,4.29,1.77,7.95,2.47,10.96.69,3.02,1.27,5.56,1.73,7.64s.84,3.75,1.12,5.01c.29,1.26.52,2.28.69,3.04s.31,1.34.41,1.75c.1.41.18.79.27,1.14.08.35.17.75.26,1.2.09.45.24,1.09.43,1.94.11.46.04.88-.2,1.24-.24.37-.56.55-.94.55h-2.32c-.27,0-.51-.1-.71-.31-.2-.2-.35-.46-.43-.75ZM123.53,27.77h2.85c.38,0,.69-.18.94-.55.25-.37.31-.78.2-1.24-.22-.9-.44-1.86-.67-2.89-.23-1.03-.48-2.15-.75-3.34-.08-.35-.23-.61-.45-.77-.22-.16-.45-.24-.69-.24s-.48.08-.69.24c-.22.16-.37.42-.45.77-.25,1.06-.48,2.11-.71,3.14-.23,1.03-.47,2.07-.71,3.1-.11.46-.04.88.2,1.24.24.37.56.55.94.55Z"/>
    <path class="cls-1" d="M162.41,21.78c0,2.2-.22,4.37-.67,6.5s-1.22,4.08-2.3,5.85c-1.14,1.79-2.53,3.15-4.18,4.08-1.64.92-3.48,1.39-5.52,1.39s-3.88-.46-5.52-1.38-3.04-2.28-4.18-4.07c-1.98-3.23-2.97-7.31-2.97-12.25s.99-9.1,2.97-12.25c1.14-1.85,2.53-3.23,4.18-4.15s3.48-1.38,5.52-1.38,3.88.46,5.52,1.37,3.04,2.29,4.18,4.13c.11.16.14.35.1.55s-.14.37-.31.51l-2.93,2c-.27.19-.53.14-.77-.16-.46-.65-.96-1.22-1.49-1.69-.53-.47-1.05-.87-1.57-1.18-.52-.31-1.01-.54-1.49-.69-.48-.15-.89-.22-1.24-.22-.62,0-1.39.16-2.3.49-.91.33-1.79.97-2.65,1.92-.86.95-1.59,2.29-2.2,4.02s-.92,3.98-.92,6.75.31,5.02.92,6.74c.61,1.71,1.34,3.04,2.2,3.98.86.94,1.74,1.57,2.65,1.9s1.68.49,2.3.49c.49,0,1.07-.11,1.75-.33.68-.22,1.38-.61,2.1-1.19s1.4-1.34,2.04-2.29c.64-.96,1.15-2.17,1.53-3.65.05-.25.03-.47-.08-.67s-.27-.31-.49-.31h-4.97c-.33,0-.6-.14-.83-.41-.23-.27-.35-.62-.35-1.06v-2.61c0-.38.12-.71.35-.98.23-.27.51-.41.83-.41h10.15c.19,0,.35.07.47.2.12.14.18.3.18.49Z"/>
    <path class="cls-1" d="M169.05,33.97c-.84-1.55-1.48-3.34-1.92-5.38-.43-2.04-.65-4.28-.65-6.72s.22-4.69.65-6.74c.43-2.05,1.07-3.85,1.92-5.4,2.06-3.78,4.98-5.67,8.76-5.67s6.7,1.89,8.76,5.67c.84,1.55,1.48,3.35,1.92,5.4.43,2.05.65,4.3.65,6.74s-.22,4.69-.65,6.72c-.43,2.04-1.07,3.83-1.92,5.38-1.03,1.85-2.28,3.25-3.75,4.2-1.47.95-3.14,1.43-5.01,1.43s-3.55-.47-5.01-1.43c-1.47-.95-2.72-2.35-3.75-4.2ZM171.09,21.86c0,.49.02,1.15.06,1.98.04.83.14,1.74.29,2.73.15.99.37,2,.67,3.02s.7,1.94,1.2,2.75,1.12,1.49,1.85,2.02c.73.53,1.62.79,2.65.79s1.92-.26,2.65-.79c.73-.53,1.35-1.2,1.85-2.02.5-.82.9-1.73,1.2-2.75s.52-2.02.67-3.02c.15-.99.24-1.9.29-2.73.04-.83.06-1.49.06-1.98s-.02-1.16-.06-2.02c-.04-.86-.14-1.77-.29-2.75-.15-.98-.37-1.98-.67-3.02-.3-1.03-.7-1.96-1.2-2.77-.5-.82-1.12-1.49-1.85-2.02s-1.62-.79-2.65-.79-1.92.26-2.65.79-1.35,1.2-1.85,2.02c-.5.81-.9,1.74-1.2,2.77-.3,1.03-.52,2.04-.67,3.02-.15.98-.25,1.9-.29,2.75-.04.86-.06,1.53-.06,2.02Z"/>
    <path class="cls-1" d="M201.12,25.04h-2.12c-.33,0-.6.12-.83.35s-.35.51-.35.83v12.19c0,.33-.12.6-.35.83-.23.23-.51.35-.83.35h-2.24c-.33,0-.61-.12-.84-.35-.23-.23-.35-.51-.35-.83V5.24c0-.33.12-.6.35-.84.23-.23.51-.35.84-.35h6.72c1.88,0,3.44.52,4.71,1.55,1.26,1.03,2.21,2.33,2.83,3.89.62,1.56.94,3.25.94,5.05s-.31,3.49-.94,5.05c-.63,1.56-1.57,2.86-2.83,3.89-1.26,1.03-2.83,1.55-4.71,1.55ZM201.2,8.66h-2.2c-.33,0-.6.12-.83.35-.23.23-.35.51-.35.84v9.41c0,.33.12.6.35.84.23.23.51.35.83.35h2.2c.84,0,1.55-.29,2.12-.88.57-.58,1-1.31,1.3-2.18.3-.87.45-1.81.45-2.83s-.14-1.96-.43-2.83c-.29-.87-.71-1.6-1.28-2.18-.57-.58-1.29-.88-2.16-.88Z"/>
    <path class="cls-1" d="M225.09,38.53c-.08-.38-.2-.9-.35-1.55-.15-.65-.35-1.55-.59-2.69-.08-.3-.22-.55-.43-.75-.2-.2-.46-.31-.75-.31h-6.52c-.3,0-.55.1-.75.31-.2.2-.35.46-.43.75-.35,1.74-.67,3.15-.94,4.24-.08.3-.22.55-.43.75-.2.2-.44.31-.71.31h-2.32c-.38,0-.69-.18-.94-.55-.25-.37-.31-.78-.2-1.24.27-1.2.61-2.71,1.02-4.54.41-1.83.86-3.81,1.34-5.93.49-2.12.98-4.3,1.49-6.54.5-2.24.98-4.37,1.43-6.4.45-2.02.86-3.85,1.24-5.48.38-1.63.67-2.89.86-3.79.05-.3.19-.55.41-.75.22-.2.46-.31.73-.31h2.93c.27,0,.52.1.73.31.22.2.35.46.41.75.95,4.29,1.77,7.95,2.47,10.96.69,3.02,1.27,5.56,1.73,7.64s.84,3.75,1.12,5.01c.29,1.26.52,2.28.69,3.04s.31,1.34.41,1.75c.1.41.18.79.27,1.14.08.35.17.75.26,1.2.09.45.24,1.09.43,1.94.11.46.04.88-.2,1.24-.24.37-.56.55-.94.55h-2.32c-.27,0-.51-.1-.71-.31-.2-.2-.35-.46-.43-.75ZM218.28,27.77h2.85c.38,0,.69-.18.94-.55.25-.37.31-.78.2-1.24-.22-.9-.44-1.86-.67-2.89-.23-1.03-.48-2.15-.75-3.34-.08-.35-.23-.61-.45-.77-.22-.16-.45-.24-.69-.24s-.48.08-.69.24c-.22.16-.37.42-.45.77-.25,1.06-.48,2.11-.71,3.14-.23,1.03-.47,2.07-.71,3.1-.11.46-.04.88.2,1.24.24.37.56.55.94.55Z"/>
    <path class="cls-1" d="M247.46,12.78c0,.33-.09.6-.26.81-.18.22-.4.33-.67.33h-2.73c-.27,0-.5-.11-.67-.33-.18-.22-.26-.49-.26-.81v-.33c0-1.25-.2-2.14-.61-2.67-.41-.53-1.01-.79-1.79-.79s-1.39.27-1.81.79c-.42.53-.63,1.42-.63,2.67,0,.62.07,1.22.2,1.79.14.57.37,1.15.69,1.75s.75,1.22,1.28,1.85c.53.64,1.19,1.35,1.98,2.14,1,1,1.85,1.95,2.55,2.83.69.88,1.24,1.75,1.65,2.61.41.86.7,1.73.88,2.61.18.88.26,1.83.26,2.83,0,2.8-.6,4.95-1.81,6.46s-3.01,2.26-5.4,2.26-4.2-.75-5.42-2.26c-1.22-1.51-1.83-3.66-1.83-6.46v-1.06c0-.3.09-.55.26-.75.18-.2.39-.31.63-.31h2.77c.25,0,.46.1.65.31.19.2.29.46.29.75v1.38c0,1.25.22,2.13.65,2.65.43.52,1.04.77,1.83.77s1.41-.26,1.85-.77c.45-.52.67-1.4.67-2.65,0-.62-.07-1.22-.2-1.79-.14-.57-.37-1.15-.69-1.75s-.75-1.22-1.28-1.85c-.53-.64-1.19-1.35-1.98-2.14-1-1-1.85-1.95-2.53-2.83-.68-.88-1.23-1.75-1.65-2.61-.42-.86-.72-1.72-.9-2.61-.18-.88-.26-1.83-.26-2.83,0-2.77.6-4.92,1.79-6.44,1.2-1.52,2.99-2.28,5.38-2.28s4.14.76,5.34,2.28c1.2,1.52,1.79,3.67,1.79,6.44Z"/>
    <path class="cls-1" d="M266,12.78c0,.33-.09.6-.26.81-.18.22-.4.33-.67.33h-2.73c-.27,0-.5-.11-.67-.33-.18-.22-.26-.49-.26-.81v-.33c0-1.25-.2-2.14-.61-2.67-.41-.53-1.01-.79-1.79-.79s-1.39.27-1.81.79c-.42.53-.63,1.42-.63,2.67,0,.62.07,1.22.2,1.79.14.57.37,1.15.69,1.75s.75,1.22,1.28,1.85c.53.64,1.19,1.35,1.98,2.14,1,1,1.85,1.95,2.55,2.83.69.88,1.24,1.75,1.65,2.61.41.86.7,1.73.88,2.61.18.88.26,1.83.26,2.83,0,2.8-.6,4.95-1.81,6.46s-3.01,2.26-5.4,2.26-4.2-.75-5.42-2.26c-1.22-1.51-1.83-3.66-1.83-6.46v-1.06c0-.3.09-.55.26-.75.18-.2.39-.31.63-.31h2.77c.25,0,.46.1.65.31.19.2.29.46.29.75v1.38c0,1.25.22,2.13.65,2.65.43.52,1.04.77,1.83.77s1.41-.26,1.85-.77c.45-.52.67-1.4.67-2.65,0-.62-.07-1.22-.2-1.79-.14-.57-.37-1.15-.69-1.75s-.75-1.22-1.28-1.85c-.53-.64-1.19-1.35-1.98-2.14-1-1-1.85-1.95-2.53-2.83-.68-.88-1.23-1.75-1.65-2.61-.42-.86-.72-1.72-.9-2.61-.18-.88-.26-1.83-.26-2.83,0-2.77.6-4.92,1.79-6.44,1.2-1.52,2.99-2.28,5.38-2.28s4.14.76,5.34,2.28c1.2,1.52,1.79,3.67,1.79,6.44Z"/>
  </g>
  <g>
    <path class="cls-1" d="M.33,27.66c.11-.22.34-.69.85-1.08.21-.16.73-.55,1.33-.51.84.06,1.37.89,1.82,1.59.25.39.17.41.9,2.46.3.84.45,1.26.55,1.49.39.88.61,1.09.74,1.72.08.4.21,1.07-.16,1.47-.14.15-.4.32-1.1.3-1.44-.04-2.55-.85-2.9-1.13-.3-.24-1.68-1.37-2.16-3.39-.13-.56-.42-1.76.14-2.93Z"/>
    <path class="cls-1" d="M23.31,26.43c.73,1.03.43,2.24.28,2.83-.13.52-.36,1.4-1.17,2-1.02.75-2.21.52-2.62.45-.45-.08-1.88-.35-2.5-1.65-.03-.06-.58-1.25,0-2.41.33-.67.88-.97,1.99-1.57,1.01-.55,1.51-.82,2.2-.74,1.11.12,1.76,1.01,1.83,1.1Z"/>
    <path class="cls-1" d="M25.31,15.64c.12,1.25-.38,2.19-.9,3.14-.5.92-.78,1.08-4.38,4.52-1.03.98-1.69,1.61-2.76,1.76-.17.02-.85.1-1.9-.28-2.17-.79-3.35-2.64-4.1-3.83-.51-.8-1.46-2.32-1.83-4.55-.18-1.1-.48-3.01.45-4.86.55-1.1,1.2-1.51,1.38-1.62.21-.12,1.11-.62,2.17-.41.98.19,1.05.78,2.38,1.41.89.42,1.66.55,2.14.62,1.6.24,1.83-.21,3.14,0,.47.08,1.92.33,3.03,1.55.22.25,1.04,1.16,1.17,2.55Z"/>
    <path class="cls-1" d="M32.98,4.82c-.37-.7-1.11-2.09-2.62-3.17-1.53-1.1-3.09-1.34-6.41-1.52-7.55-.4-11.48.19-14.27.9-.98.25-2.24.62-3.52,1.59-1.79,1.36-2.57,3.1-2.87,3.79-.8,1.86-.87,3.53-.86,4.83.04,3.87.79,7.14,1.65,10.41,1.95,7.36,2.11,5.83,3.79,12.2.88,3.35,1.19,5.11,2.83,7.1.55.67,2.21,2.64,5.17,3.58.85.27,3.54,1.09,6.41,0,1.54-.58,3.1-1.71,5.17-4.89.84-1.29,3.19-5.12,5.1-13.56.96-4.24,1.17-7.18,1.59-13.05.19-2.64.3-5.4-1.17-8.2ZM30.75,15.39c-.31,4.41-.47,6.62-1.19,9.81-1.44,6.34-3.2,9.22-3.83,10.19-1.56,2.4-2.73,3.24-3.89,3.68-2.15.82-4.18.2-4.82,0-2.23-.71-3.47-2.19-3.89-2.69-1.23-1.5-1.46-2.82-2.12-5.34-1.26-4.79-1.39-3.64-2.85-9.17-.65-2.46-1.22-4.91-1.24-7.82,0-.98.04-2.23.64-3.63.22-.52.81-1.83,2.15-2.85.96-.73,1.9-1,2.64-1.19,2.09-.53,5.05-.97,10.72-.67,2.5.13,3.67.31,4.82,1.14,1.13.81,1.69,1.85,1.97,2.38,1.11,2.11,1.02,4.18.88,6.16Z"/>
    <path class="cls-1" d="M23.31,26.43c.73,1.03.43,2.24.28,2.83-.13.52-.36,1.4-1.17,2-1.02.75-2.21.52-2.62.45-.45-.08-1.88-.35-2.5-1.65-.03-.06-.58-1.25,0-2.41.33-.67.88-.97,1.99-1.57,1.01-.55,1.51-.82,2.2-.74,1.11.12,1.76,1.01,1.83,1.1Z"/>
    <path class="cls-1" d="M24.41,18.78c-.5.92-.78,1.08-4.38,4.52-1.03.98-1.69,1.61-2.76,1.76-.17.02-.85.1-1.9-.28-2.17-.79-3.35-2.64-4.1-3.83-.51-.8-1.46-2.32-1.83-4.55-.18-1.1-.48-3.01.45-4.86.55-1.1,1.2-1.51,1.38-1.62.21-.12,1.11-.62,2.17-.41.98.19,1.05.78,2.38,1.41.89.42,1.66.55,2.14.62,1.6.24,1.83-.21,3.14,0,.47.08,1.92.33,3.03,1.55.22.25,1.04,1.16,1.17,2.55.12,1.25-.38,2.19-.9,3.14Z"/>
    <path class="cls-1" d="M24.41,18.78c-.5.92-.78,1.08-4.38,4.52-1.03.98-1.69,1.61-2.76,1.76-.17.02-.85.1-1.9-.28-2.17-.79-3.35-2.64-4.1-3.83-.51-.8-1.46-2.32-1.83-4.55-.18-1.1-.48-3.01.45-4.86.55-1.1,1.2-1.51,1.38-1.62.21-.12,1.11-.62,2.17-.41.98.19,1.05.78,2.38,1.41.89.42,1.66.55,2.14.62,1.6.24,1.83-.21,3.14,0,.47.08,1.92.33,3.03,1.55.22.25,1.04,1.16,1.17,2.55.12,1.25-.38,2.19-.9,3.14Z"/>
    <path class="cls-1" d="M23.58,29.26c-.13.52-.36,1.4-1.17,2-1.02.75-2.21.52-2.62.45-.45-.08-1.88-.35-2.5-1.65-.03-.06-.58-1.25,0-2.41.33-.67.88-.97,1.99-1.57,1.01-.55,1.51-.82,2.2-.74,1.11.12,1.76,1.01,1.83,1.1.73,1.03.43,2.24.28,2.83Z"/>
    <path class="cls-1" d="M35.76,6.08c.5-.29,1.18-.04,1.29,0,.46.17.71.48.87.67.55.66.8,1.62.57,2.53-.09.36-.22.86-.69,1.17-.5.33-1.18.29-1.65,0-.54-.33-.66-.91-.8-1.56-.08-.38-.49-2.27.41-2.8Z"/>
  </g>
</svg>