<?xml version="1.0" encoding="UTF-8"?>
<svg id="Layer_1" data-name="Layer 1" xmlns="http://www.w3.org/2000/svg" viewBox="0 0 1014.71 749.88">
  <defs>
    <style>
      .cls-1 {
        isolation: isolate;
      }

      .cls-2 {
        fill: #fff;
      }
    </style>
  </defs>
  <g class="cls-1">
    <g class="cls-1">
      <path class="cls-2" d="M48.4,658.9h-10.07c-1.55,0-2.87.55-3.97,1.65-1.1,1.1-1.65,2.42-1.65,3.97v57.88c0,1.55-.55,2.87-1.65,3.97-1.1,1.1-2.42,1.65-3.97,1.65h-10.65c-1.55,0-2.87-.55-3.97-1.65-1.1-1.09-1.65-2.42-1.65-3.97v-157.57c0-1.55.55-2.87,1.65-3.97,1.1-1.09,2.42-1.65,3.97-1.65h31.94c8.9,0,16.36,2.45,22.36,7.36,6,4.91,10.48,11.07,13.45,18.49,2.97,7.42,4.45,15.42,4.45,24s-1.48,16.58-4.45,24c-2.97,7.42-7.45,13.58-13.45,18.49-6,4.91-13.45,7.36-22.36,7.36ZM48.79,581.08h-10.45c-1.55,0-2.87.55-3.97,1.65-1.1,1.1-1.65,2.42-1.65,3.97v44.71c0,1.55.55,2.87,1.65,3.97,1.09,1.1,2.42,1.65,3.97,1.65h10.45c4,0,7.36-1.39,10.07-4.16,2.71-2.77,4.77-6.22,6.19-10.36,1.42-4.13,2.13-8.61,2.13-13.45s-.68-9.32-2.03-13.45c-1.35-4.13-3.39-7.58-6.1-10.36-2.71-2.77-6.13-4.16-10.26-4.16Z"/>
      <path class="cls-2" d="M172.29,581.08h-36.58c-1.55,0-2.87.55-3.97,1.65-1.1,1.1-1.65,2.42-1.65,3.97v11.61c0,1.55.55,2.87,1.65,3.97,1.09,1.1,2.42,1.65,3.97,1.65h24.2c1.68,0,3.06.55,4.16,1.65,1.09,1.1,1.65,2.42,1.65,3.97v10.45c0,1.55-.55,2.9-1.65,4.06-1.1,1.16-2.49,1.74-4.16,1.74h-24.2c-1.55,0-2.87.55-3.97,1.65-1.1,1.1-1.65,2.42-1.65,3.97v69.1c0,1.55.55,2.87,1.65,3.97,1.09,1.1,2.42,1.65,3.97,1.65h36.58c1.55,0,2.87.55,3.97,1.64,1.1,1.1,1.65,2.42,1.65,3.97v10.65c0,1.55-.55,2.87-1.65,3.97-1.1,1.1-2.42,1.65-3.97,1.65h-58.46c-1.55,0-2.87-.55-3.97-1.65-1.1-1.09-1.65-2.42-1.65-3.97v-157.57c0-1.55.55-2.87,1.65-3.97,1.1-1.09,2.42-1.65,3.97-1.65h58.46c1.55,0,2.87.55,3.97,1.65,1.1,1.1,1.65,2.42,1.65,3.97v10.65c0,1.55-.55,2.87-1.65,3.97-1.1,1.1-2.42,1.65-3.97,1.65Z"/>
      <path class="cls-2" d="M256.3,706.13c1.55,0,2.87.55,3.97,1.64,1.09,1.1,1.65,2.42,1.65,3.97v10.65c0,1.55-.55,2.87-1.65,3.97-1.1,1.1-2.42,1.65-3.97,1.65h-53.43c-1.55,0-2.87-.55-3.97-1.65-1.1-1.09-1.65-2.42-1.65-3.97v-157.57c0-1.55.55-2.87,1.65-3.97,1.1-1.09,2.42-1.65,3.97-1.65h10.65c1.55,0,2.87.55,3.97,1.65,1.09,1.1,1.65,2.42,1.65,3.97v135.69c0,1.55.55,2.87,1.65,3.97,1.09,1.1,2.42,1.65,3.97,1.65h31.55Z"/>
    </g>
    <g class="cls-1">
      <path class="cls-2" d="M354.64,722.97c-.39-1.81-.94-4.26-1.65-7.36-.71-3.1-1.65-7.36-2.81-12.78-.39-1.42-1.06-2.61-2.03-3.58-.97-.97-2.16-1.45-3.58-1.45h-30.97c-1.42,0-2.61.48-3.58,1.45-.97.97-1.65,2.16-2.03,3.58-1.68,8.26-3.16,14.97-4.45,20.13-.39,1.42-1.06,2.61-2.03,3.58-.97.97-2.1,1.45-3.39,1.45h-11.03c-1.81,0-3.29-.87-4.45-2.61-1.16-1.74-1.49-3.71-.97-5.9,1.29-5.68,2.9-12.87,4.84-21.58,1.94-8.71,4.06-18.1,6.39-28.16,2.32-10.07,4.68-20.42,7.07-31.07,2.39-10.65,4.65-20.78,6.77-30.39,2.13-9.61,4.1-18.29,5.9-26.04,1.81-7.74,3.16-13.74,4.07-18,.26-1.42.9-2.61,1.94-3.58,1.03-.97,2.19-1.45,3.48-1.45h13.94c1.29,0,2.45.48,3.48,1.45,1.03.97,1.68,2.16,1.94,3.58,4.52,20.39,8.42,37.75,11.71,52.07,3.29,14.32,6.03,26.42,8.23,36.29,2.19,9.87,3.97,17.81,5.32,23.81,1.35,6,2.45,10.81,3.29,14.42.84,3.61,1.48,6.39,1.94,8.32.45,1.94.87,3.74,1.26,5.42.39,1.68.8,3.58,1.26,5.71.45,2.13,1.13,5.2,2.03,9.2.51,2.2.19,4.16-.97,5.9-1.16,1.74-2.65,2.61-4.45,2.61h-11.03c-1.29,0-2.42-.48-3.39-1.45-.97-.97-1.65-2.16-2.03-3.58ZM322.31,671.87h13.55c1.81,0,3.29-.87,4.45-2.61,1.16-1.74,1.48-3.71.97-5.9-1.03-4.26-2.1-8.84-3.19-13.74-1.1-4.9-2.29-10.19-3.58-15.87-.39-1.68-1.1-2.9-2.13-3.68-1.03-.77-2.13-1.16-3.29-1.16s-2.26.39-3.29,1.16c-1.03.77-1.74,2-2.13,3.68-1.16,5.03-2.29,10-3.39,14.91-1.1,4.91-2.23,9.81-3.39,14.71-.52,2.2-.19,4.16.97,5.9,1.16,1.74,2.64,2.61,4.45,2.61Z"/>
    </g>
    <g class="cls-1">
      <path class="cls-2" d="M506.97,643.41c0,10.45-1.06,20.75-3.19,30.87-2.13,10.13-5.78,19.39-10.94,27.78-5.42,8.52-12.03,14.97-19.84,19.36-7.81,4.39-16.55,6.58-26.23,6.58s-18.42-2.19-26.23-6.57c-7.81-4.38-14.42-10.83-19.84-19.34-9.42-15.34-14.13-34.74-14.13-58.2s4.71-43.24,14.13-58.2c5.42-8.76,12.03-15.34,19.84-19.72,7.81-4.38,16.55-6.58,26.23-6.58s18.42,2.17,26.23,6.52c7.81,4.35,14.42,10.88,19.84,19.61.51.77.68,1.65.48,2.61-.19.97-.68,1.78-1.45,2.42l-13.94,9.48c-1.29.9-2.52.65-3.68-.77-2.2-3.1-4.55-5.77-7.07-8.03-2.52-2.26-5-4.13-7.45-5.61-2.45-1.48-4.81-2.58-7.07-3.29-2.26-.71-4.23-1.06-5.9-1.06-2.97,0-6.61.78-10.94,2.33-4.32,1.55-8.52,4.59-12.58,9.11s-7.55,10.89-10.45,19.1-4.36,18.9-4.36,32.08,1.45,23.85,4.36,31.99c2.9,8.14,6.39,14.44,10.45,18.9,4.06,4.46,8.26,7.46,12.58,9.01,4.32,1.55,7.97,2.33,10.94,2.33,2.32,0,5.1-.52,8.32-1.55,3.22-1.04,6.55-2.92,9.97-5.64,3.42-2.72,6.65-6.35,9.68-10.89,3.03-4.54,5.45-10.31,7.26-17.31.26-1.17.13-2.23-.39-3.21-.52-.97-1.29-1.46-2.32-1.46h-23.62c-1.55,0-2.87-.64-3.97-1.94-1.1-1.29-1.65-2.97-1.65-5.03v-12.39c0-1.81.55-3.35,1.65-4.65,1.09-1.29,2.42-1.94,3.97-1.94h48.2c.9,0,1.65.32,2.23.97.58.65.87,1.42.87,2.32Z"/>
      <path class="cls-2" d="M538.52,701.29c-4-7.36-7.04-15.87-9.1-25.55-2.07-9.68-3.1-20.33-3.1-31.94s1.03-22.29,3.1-32.04c2.06-9.74,5.1-18.29,9.1-25.65,9.81-17.94,23.68-26.91,41.62-26.91s31.81,8.97,41.62,26.91c4,7.36,7.03,15.91,9.1,25.65,2.06,9.75,3.1,20.42,3.1,32.04s-1.03,22.26-3.1,31.94c-2.07,9.68-5.1,18.2-9.1,25.55-4.91,8.78-10.84,15.42-17.81,19.94-6.97,4.52-14.91,6.78-23.81,6.78s-16.84-2.26-23.81-6.78c-6.97-4.52-12.91-11.16-17.81-19.94ZM548.2,643.8c0,2.32.1,5.45.29,9.39.19,3.94.64,8.26,1.36,12.97.71,4.71,1.77,9.49,3.19,14.32,1.42,4.84,3.32,9.19,5.71,13.07,2.39,3.87,5.32,7.06,8.81,9.58,3.48,2.52,7.68,3.77,12.58,3.77s9.1-1.26,12.58-3.77c3.48-2.52,6.42-5.71,8.81-9.58,2.39-3.87,4.29-8.23,5.71-13.07,1.42-4.84,2.48-9.61,3.19-14.32.71-4.71,1.16-9.03,1.36-12.97.19-3.94.29-7.07.29-9.39s-.1-5.52-.29-9.58c-.19-4.06-.65-8.42-1.36-13.07-.71-4.65-1.78-9.42-3.19-14.32-1.42-4.9-3.32-9.29-5.71-13.16-2.39-3.87-5.32-7.07-8.81-9.58-3.48-2.52-7.68-3.78-12.58-3.78s-9.1,1.26-12.58,3.78c-3.48,2.52-6.42,5.71-8.81,9.58-2.39,3.87-4.29,8.26-5.71,13.16-1.42,4.91-2.49,9.68-3.19,14.32-.71,4.65-1.16,9-1.36,13.07-.19,4.07-.29,7.26-.29,9.58Z"/>
    </g>
    <g class="cls-1">
      <path class="cls-2" d="M690.87,658.9h-10.07c-1.55,0-2.87.55-3.97,1.65s-1.65,2.42-1.65,3.97v57.88c0,1.55-.55,2.87-1.64,3.97-1.1,1.1-2.42,1.65-3.97,1.65h-10.65c-1.55,0-2.87-.55-3.97-1.65-1.1-1.09-1.65-2.42-1.65-3.97v-157.57c0-1.55.55-2.87,1.65-3.97s2.42-1.65,3.97-1.65h31.94c8.9,0,16.36,2.45,22.36,7.36,6,4.91,10.48,11.07,13.45,18.49,2.97,7.42,4.45,15.42,4.45,24s-1.49,16.58-4.45,24c-2.97,7.42-7.45,13.58-13.45,18.49-6,4.91-13.45,7.36-22.36,7.36ZM691.26,581.08h-10.45c-1.55,0-2.87.55-3.97,1.65s-1.65,2.42-1.65,3.97v44.71c0,1.55.55,2.87,1.65,3.97,1.09,1.1,2.42,1.65,3.97,1.65h10.45c4,0,7.36-1.39,10.07-4.16,2.71-2.77,4.77-6.22,6.19-10.36,1.42-4.13,2.13-8.61,2.13-13.45s-.68-9.32-2.03-13.45c-1.36-4.13-3.39-7.58-6.1-10.36-2.71-2.77-6.13-4.16-10.26-4.16Z"/>
    </g>
    <g class="cls-1">
      <path class="cls-2" d="M806.62,722.97c-.39-1.81-.94-4.26-1.65-7.36-.71-3.1-1.64-7.36-2.81-12.78-.39-1.42-1.06-2.61-2.03-3.58s-2.16-1.45-3.58-1.45h-30.97c-1.42,0-2.61.48-3.58,1.45-.97.97-1.65,2.16-2.03,3.58-1.68,8.26-3.16,14.97-4.45,20.13-.39,1.42-1.06,2.61-2.03,3.58s-2.1,1.45-3.39,1.45h-11.03c-1.81,0-3.29-.87-4.45-2.61s-1.49-3.71-.97-5.9c1.29-5.68,2.9-12.87,4.84-21.58,1.94-8.71,4.07-18.1,6.39-28.16,2.32-10.07,4.68-20.42,7.07-31.07,2.39-10.65,4.65-20.78,6.78-30.39,2.13-9.61,4.09-18.29,5.9-26.04,1.81-7.74,3.16-13.74,4.07-18,.26-1.42.9-2.61,1.94-3.58,1.03-.97,2.19-1.45,3.48-1.45h13.94c1.29,0,2.45.48,3.48,1.45,1.03.97,1.68,2.16,1.94,3.58,4.52,20.39,8.42,37.75,11.71,52.07,3.29,14.32,6.03,26.42,8.23,36.29,2.19,9.87,3.97,17.81,5.32,23.81,1.35,6,2.45,10.81,3.29,14.42.84,3.61,1.48,6.39,1.94,8.32.45,1.94.87,3.74,1.26,5.42.39,1.68.8,3.58,1.26,5.71.45,2.13,1.13,5.2,2.03,9.2.51,2.2.19,4.16-.97,5.9-1.16,1.74-2.65,2.61-4.45,2.61h-11.03c-1.29,0-2.42-.48-3.39-1.45-.97-.97-1.65-2.16-2.03-3.58ZM774.3,671.87h13.55c1.81,0,3.29-.87,4.45-2.61,1.16-1.74,1.48-3.71.97-5.9-1.03-4.26-2.1-8.84-3.19-13.74-1.1-4.9-2.29-10.19-3.58-15.87-.39-1.68-1.1-2.9-2.13-3.68-1.03-.77-2.13-1.16-3.29-1.16s-2.26.39-3.29,1.16c-1.03.77-1.74,2-2.13,3.68-1.16,5.03-2.29,10-3.39,14.91-1.1,4.91-2.23,9.81-3.39,14.71-.52,2.2-.19,4.16.97,5.9,1.16,1.74,2.64,2.61,4.45,2.61Z"/>
      <path class="cls-2" d="M916.77,600.63c0,1.55-.42,2.84-1.26,3.87-.84,1.04-1.91,1.55-3.19,1.55h-12.97c-1.29,0-2.36-.51-3.19-1.55-.84-1.03-1.26-2.32-1.26-3.87v-1.55c0-5.93-.97-10.16-2.9-12.68s-4.78-3.77-8.52-3.77-6.62,1.26-8.61,3.77c-2,2.52-3,6.75-3,12.68,0,2.97.32,5.81.97,8.52.64,2.71,1.74,5.49,3.29,8.32,1.55,2.84,3.58,5.78,6.1,8.81,2.52,3.03,5.64,6.42,9.39,10.16,4.77,4.78,8.81,9.26,12.1,13.45,3.29,4.2,5.9,8.32,7.84,12.39,1.94,4.07,3.32,8.2,4.16,12.39.84,4.2,1.26,8.68,1.26,13.45,0,13.29-2.87,23.52-8.61,30.68-5.74,7.16-14.29,10.74-25.65,10.74s-19.94-3.58-25.75-10.74c-5.81-7.16-8.71-17.39-8.71-30.68v-5.03c0-1.42.42-2.61,1.26-3.58.84-.97,1.84-1.45,3-1.45h13.16c1.16,0,2.19.48,3.1,1.45.9.97,1.36,2.16,1.36,3.58v6.58c0,5.94,1.03,10.13,3.1,12.58,2.06,2.45,4.97,3.68,8.71,3.68s6.68-1.23,8.81-3.68c2.13-2.45,3.19-6.65,3.19-12.58,0-2.97-.32-5.81-.97-8.52-.65-2.71-1.74-5.48-3.29-8.32-1.55-2.84-3.58-5.77-6.1-8.81-2.52-3.03-5.65-6.42-9.39-10.16-4.78-4.77-8.78-9.26-12-13.45-3.23-4.19-5.84-8.32-7.84-12.39-2-4.07-3.42-8.19-4.26-12.39-.84-4.19-1.26-8.68-1.26-13.45,0-13.16,2.84-23.36,8.52-30.58,5.68-7.23,14.19-10.84,25.55-10.84s19.68,3.61,25.36,10.84c5.68,7.23,8.52,17.42,8.52,30.58Z"/>
      <path class="cls-2" d="M1004.84,600.63c0,1.55-.42,2.84-1.26,3.87-.84,1.04-1.91,1.55-3.19,1.55h-12.97c-1.29,0-2.36-.51-3.19-1.55-.84-1.03-1.26-2.32-1.26-3.87v-1.55c0-5.93-.97-10.16-2.9-12.68s-4.78-3.77-8.52-3.77-6.61,1.26-8.61,3.77c-2,2.52-3,6.75-3,12.68,0,2.97.32,5.81.97,8.52.64,2.71,1.74,5.49,3.29,8.32,1.55,2.84,3.58,5.78,6.1,8.81,2.52,3.03,5.64,6.42,9.39,10.16,4.77,4.78,8.81,9.26,12.1,13.45,3.29,4.2,5.9,8.32,7.84,12.39,1.94,4.07,3.32,8.2,4.16,12.39.84,4.2,1.26,8.68,1.26,13.45,0,13.29-2.87,23.52-8.61,30.68-5.74,7.16-14.29,10.74-25.65,10.74s-19.94-3.58-25.74-10.74c-5.81-7.16-8.71-17.39-8.71-30.68v-5.03c0-1.42.42-2.61,1.26-3.58.84-.97,1.84-1.45,3-1.45h13.16c1.16,0,2.19.48,3.1,1.45.9.97,1.35,2.16,1.35,3.58v6.58c0,5.94,1.03,10.13,3.1,12.58,2.06,2.45,4.97,3.68,8.71,3.68s6.68-1.23,8.81-3.68c2.13-2.45,3.19-6.65,3.19-12.58,0-2.97-.32-5.81-.97-8.52-.65-2.71-1.74-5.48-3.29-8.32-1.55-2.84-3.58-5.77-6.1-8.81-2.52-3.03-5.65-6.42-9.39-10.16-4.78-4.77-8.78-9.26-12-13.45-3.23-4.19-5.84-8.32-7.84-12.39-2-4.07-3.42-8.19-4.26-12.39-.84-4.19-1.26-8.68-1.26-13.45,0-13.16,2.84-23.36,8.52-30.58,5.68-7.23,14.19-10.84,25.55-10.84s19.68,3.61,25.36,10.84c5.68,7.23,8.52,17.42,8.52,30.58Z"/>
    </g>
  </g>
  <path class="cls-2" d="M139.56,36.73c-3.48-10.68-18.58-15.06-28.19-15.58-25.09-1.35-43.67,21.97-46.73,25.96-13.66,17.78-6.92,26.24-20.77,41.54-14.14,15.61-25.37,11.45-33.38,25.22-7.73,13.29-7.38,34.58,4.45,45.99,15.59,15.04,44.23,6.28,58.6-5.93,8.77-7.45,12.79-16.69,17.8-28.19,9.57-21.95,4.58-28.58,14.09-40.8,8.48-10.88,14.52-8.29,24.48-21.51,4.93-6.55,12.8-17,9.64-26.7h.01ZM108.85,71.28c-1.48,2.22-3.17,4.09-4.37,5.42-3.77,4.18-6.02,5.56-10.84,10.01-4.41,4.07-6.61,6.1-7.32,7.39-3.62,6.58.64,11.77-.1,20.33-.9,10.41-8.52,17.62-10.47,19.54-8.95,8.78-27.54,15.94-38.59,6.71-8.39-7.01-9.62-21.11-5.13-30.29,4.66-9.52,12.31-7.28,20.95-18.31,1.88-2.4,3.1-4.53,3.96-6.52,4.91-11.48,4.79-15.8,7.85-22.02,6.84-13.9,25.63-16.97,28.53-17.44,5.23-.85,15.98-2.61,20,3,4.3,5.99-1.25,17.37-4.47,22.18Z"/>
  <path class="cls-2" d="M429.31,44.1C406.88,16.96,393.7,1.51,373.31.1c-16.45-1.13-30.16,7.39-44,16-15.15,9.42-24.44,19.78-37,34-13.35,15.12-15,19.57-30,39-32.49,42.07-40.69,41.75-45,59-4.56,18.27-1.5,43.16,14,58,16.33,15.63,39.53,13.47,66,11,13.07-1.22,58.75-6.7,112-43,33.38-22.76,56.08-38.23,58-63,1.49-19.23-11.67-35.15-38-67ZM427.63,117.77c-1.48,19.09-18.98,31.02-44.72,48.57-41.06,27.99-76.28,32.22-86.36,33.16-20.41,1.9-38.3,3.57-50.89-8.49-11.95-11.43-14.31-30.63-10.79-44.72,3.32-13.3,9.64-13.05,34.69-45.49,11.57-14.98,12.84-18.41,23.14-30.07,9.68-10.96,16.84-18.95,28.52-26.21,10.68-6.64,21.25-13.22,33.93-12.34,15.73,1.08,25.88,13,43.18,33.92,20.3,24.56,30.45,36.84,29.3,51.67h0Z"/>
  <path class="cls-2" d="M619.31,15.41c-18.05-9.67-43.52-3.94-61,0-17.96,4.04-43.84,9.87-55,31.47-3.38,6.56-4.25,12.32-5,17.26-4.01,26.59,9.43,38.38,10,56.86,1.12,36.2-48.17,64.42-51,65.99-6.19,3.44-13.75,6.05-13.75,6.05-11.82,4.49-21.19,6.3-30.25,8.06-23.6,4.57-35.39,6.86-36,7-2.97.7-32.06,7.96-54,31-5.23,5.49-33.55,36.55-28,73.79,8.08,54.25,81.06,74.54,87,76.15,60.19,16.27,112.66-15.51,139-31.47,13.52-8.19,60.01-38.17,93-99.5,48.43-90.04,51.62-217.68,5-242.65h0ZM610.3,225.89c-19.23,43.65-49.92,67.06-58.88,73.52-17.45,12.57-52.22,37.62-95.46,30.73-10.14-1.61-54.34-10.34-65.86-45.47-8.45-25.77,6.2-48.89,7.26-50.51,9.04-13.79,22.65-18.77,46.19-28.01,30.61-12.03,36.23-6.92,52.12-17.52,2.02-1.35,30.09-19.95,31.56-48.03.55-10.52-3.28-9.95-4.92-31.48-1.05-13.84-1.51-20.88,2-27,5.37-9.36,16.03-12.28,31.26-16.22,17.45-4.51,32.07-8.43,42.77-4.16,34.29,13.69,40.18,100.08,11.96,164.17v-.02Z"/>
  <path class="cls-2" d="M823.31,366.1c-12.9-20-38.23-23.51-49-25-21.19-2.93-27.3,3.57-57,5-20.44.99-20.36-1.96-54-4-41.43-2.52-62.15-3.77-87,4-28.1,8.79-45.08,23.52-50,28-9.61,8.75-18.22,16.59-23,29-13.48,35,16.06,73.86,23,83,6.47,8.51,28.29,37.23,66,45,19.6,4.04,40-1.92,80-14,45.06-13.61,69.04-20.86,98-40,24.84-16.42,50.49-33.91,58-65,1.54-6.36,6.73-27.82-5-46ZM776.43,419.97c-5.7,21.56-25.14,33.69-43.98,45.07-21.97,13.28-40.16,18.3-74.33,27.74-30.33,8.38-45.81,12.51-60.67,9.71-28.6-5.39-45.15-25.31-50.06-31.21-5.26-6.33-27.66-33.28-17.44-57.55,3.62-8.6,10.16-14.04,17.44-20.1,3.74-3.11,16.62-13.32,37.92-19.42,18.85-5.39,34.56-4.52,65.99-2.77,25.51,1.41,25.45,3.45,40.95,2.77,22.53-.99,27.16-5.5,43.23-3.47,8.17,1.04,27.38,3.47,37.16,17.34,8.89,12.6,4.96,27.49,3.79,31.89h0Z"/>
  <path class="cls-2" d="M969.31,268.1c-3.95-37.85,5.37-55.96,13-100,9.86-56.87,4.95-88.01,0-107-5.64-21.62-13.1-34.2-25-40-10.89-5.3-22.53-3.48-35,0-47.83,13.34-83.15,44.06-100,60-30.21,28.57-45.31,42.86-55,66-2.49,5.94-23.71,58.82,0,109,13.46,28.48,24.46,20.27,59,64,26.72,33.84,51.81,65.59,51,106-.38,18.91-6.19,27.99,0,45,7.07,19.44,26.27,39.23,46,38,4.77-.3,15.57-2.28,30-21,46.84-60.78,26.95-161.8,21-192-2.26-11.48-3.81-16.62-5-28ZM947.76,425.05c-9.67,15.14-17.71,17.36-21.3,17.91-14.84,2.25-30.7-11.44-37.35-25.68-5.83-12.46-2.04-19.72-3.02-34.05-2.1-30.64-23.21-52.99-45.7-76.8-29.06-30.78-36.84-23.83-48.93-44.48-21.31-36.39-8.79-77.83-7.31-82.49,5.79-18.16,16.26-29.99,37.2-53.63,11.69-13.19,36.36-38.81,71.66-52.11,9.2-3.47,17.89-5.63,26.49-2.34,9.39,3.58,15.88,12.6,21.6,28.59,5.02,14.04,10.81,37.28,7.16,80.97-2.82,33.85-8.66,48.17-3.13,76.55,1.66,8.54,3.18,12.32,5.66,20.86,6.52,22.45,28.34,97.57-3.03,146.7h0Z"/>
  <path class="cls-2" d="M99.31,334.1c-2.82-3.29-4.92-3.51-22-10-20.51-7.79-22.42-9.34-24-11-7.2-7.54-4.05-13.39-12-20-7.29-6.06-15.81-6.02-17-6-1.46.03-11.64.38-18,8-2.34,2.8-3.84,6.19-5,20-1.39,16.54-2.08,24.82,0,32,4.22,14.54,13.87,23.17,16,25,13.17,11.35,28.1,12.3,39,13,10.41.67,20.65,1.32,31-5,3.1-1.89,12.62-7.91,16-20,.37-1.31,4.33-16.26-4-26ZM84.02,348.68c-.19,7.12-4.59,11.75-6.04,13.22-4.81,4.91-10.53,5.97-16.35,7.04-6.09,1.13-14.44,2.67-23.26-1.75-1.42-.71-7.93-4.12-12.26-11.53-2.14-3.66-2.9-8.31-4.43-17.6-1.28-7.76-.92-9.83-.02-11.69,2.44-5.08,7.99-6.68,8.79-6.9.65-.18,5.33-1.38,10.18.95,5.29,2.53,4.37,6.19,9.37,9.34,1.1.69,2.37,1.28,14.73,2.72,10.29,1.2,11.48,1.03,13.48,2.45,5.93,4.21,5.83,12.98,5.81,13.75h0Z"/>
  <path class="cls-2" d="M39.31,427.1c5.33-15.01,7.65-19.9,13-24,1.46-1.12,8.2-6.06,17-6,14.17.1,24.69,13.08,29,18,0,0,23.58,25.86,67,42,30.09,11.19,64.76,10.31,77,10,0,0,21.05-.53,47,8,5.85,1.92,13.52,4.87,17,12,3.17,6.5,1.69,14.09,0,18-12.23,28.32-103.75,21.21-133,16-3.92-.7-16.58-3.12-34-4-14.87-.75-17.8.39-27,0-10.3-.43-40.94-3.31-64-25-7.48-7.03-17.72-16.67-19-31-.42-4.66,3.06-14.44,10-34Z"/>
  <path class="cls-2" d="M422.31,485.1c-1.92-4.29-7.85-18.07-3-33,1.28-3.95,4.35-13.4,12-16,4.67-1.59,9.78.28,20,4,9.68,3.53,10.3,5.28,16,6,8.25,1.04,9.56-2.31,16-1,7.77,1.58,14.17,8.15,17,15,3.31,8.03,1.3,15.44,0,20-3.89,13.6-17.62,37.3-40,37-23.83-.32-36.02-27.57-38-32Z"/>
  <path class="cls-2" d="M155.31,233.1c.03-7.77,11.35-13.21,13-14,1.56-.75,14.87-7.15,23,0,5.4,4.74,5.07,12.42,5,14-.27,6.22-3.51,12.93-9,16-12.05,6.73-32.04-5.65-32-16Z"/>
  <path class="cls-2" d="M209.31,275.1c6.17-7.49,17.19-13.17,29-12,2.41.24,14.58,1.72,22,12,6.81,9.42,5.19,20.1,4,28-1.1,7.3-2.72,18-12,26-8,6.9-20.69,10.92-31,7-19.91-7.57-26.7-43.14-12-61Z"/>
  <path class="cls-2" d="M671.31,272.51c-1.1-16.17,2.91-31.45,4-35.51,3.48-12.9,5.78-12.45,9-23.3,6.61-22.26-1.05-30.89,4-58.81,2.44-13.51,4.54-24.34,12-27.74,8.33-3.8,20.15,3.12,26,12.2,4.67,7.25,4.64,14.47,4,41.05-.52,21.54-.87,32.11-1,37.72-.95,40.32,3.93,41.88,1,59.91-3.4,20.91-15.16,50.75-29,51.04-14.55.3-28.33-32.13-30-56.59v.03Z"/>
  <path class="cls-2" d="M679.31,53.1c8.55-16.11,23.64-23.12,32-27,3.08-1.43,17.22-7.78,37-8,13.68-.15,26.95-.3,38,9,2.25,1.9,12.78,10.75,13,25,.16,9.92-4.72,20.38-13,26-11.19,7.6-19.08-.08-47,3-14.36,1.58-15.36,3.95-31,5-16.29,1.09-28,1.88-33-5-6.28-8.63,1.88-24.02,4-28Z"/>
  <path class="cls-2" d="M820.31,461.1c11.86-7.18,24.15-4.67,27-4,4.63,1.09,13.68,3.21,18,11,4.9,8.84,1.22,20.48-4,27-13.82,17.26-51.24,14.62-58,0-4.61-9.96,4.56-26.47,17-34Z"/>
  <path class="cls-2" d="M368.31,521.39c3.51,2.99,14.61,12.17,29,10.72,2.11-.21,15.38-1.78,20-10.72,4.46-8.63-2.04-18.47-12-38-16.09-31.56-13.49-34.08-20-43.85-15.45-23.19-38.89-22.19-111-42.87-55.85-16.02-84.14-24.36-102-40.92-22.19-20.57-16.67-30.79-49-62.36-22.62-22.09-42.34-33.7-39-43.85,2.33-7.07,13.66-6.69,28-12.67,26.69-11.13,41.75-34.7,48-47.74,12.85-26.81-3.47-32.03,8-65.28,2.3-6.66,14.28-41.37,45-60.41,6.34-3.93,13.3-7.08,25-15.59,11.42-8.3,16.61-13.98,27-25.33,9.51-10.4,11.03-13.81,10-16.56-1.74-4.64-10.16-5.9-15-5.85-12.01.14-20.95,8.68-27,14.62-9.13,8.96-7.19,11.4-15,19.49-10.47,10.85-16.65,9.27-31,19.49-13.97,9.95-21.85,21.23-26,27.28-10.57,15.42-14.63,29.51-17,38-6.82,24.44-.69,26.68-7,43.85-1.9,5.18-10.66,29.01-33,40.92-9.21,4.91-11.36,2.8-36,12.67-17.96,7.19-21.48,10.18-24,13.64-8.52,11.7-4.51,27.25-3,33.13,4.01,15.57,13.85,25.26,19,30.21,18.15,17.44,28.07,11.54,44,26.31,12.75,11.81,7.37,16.48,25,42.87,6.79,10.17,16.33,24.22,33,38,3.39,2.8,17.36,14.09,39,23.38,17.05,7.32,30.89,9.98,50,13.64,26.6,5.1,29.06,2.83,47,7.79,21.28,5.88,31.92,8.83,41,17.54,19.7,18.9,7.3,39.97,29,58.46h0Z"/>
</svg>