<?xml version="1.0" encoding="UTF-8"?>
<svg id="Layer_1" data-name="Layer 1" xmlns="http://www.w3.org/2000/svg" viewBox="0 0 797.91 932.21">
  <defs>
    <style>
      .cls-1 {
        fill: #fff;
      }
    </style>
  </defs>
  <path d="M6.81,572.03c2.17-4.58,6.96-14.35,17.58-22.34,4.41-3.32,15.01-11.28,27.56-10.46,17.34,1.14,28.37,18.42,37.54,32.79,5.16,8.08,3.46,8.42,18.53,50.85,6.19,17.42,9.29,26.14,11.41,30.89,8.09,18.16,12.66,22.54,15.21,35.64,1.63,8.38,4.33,22.23-3.33,30.42-2.84,3.03-8.34,6.63-22.81,6.18-29.86-.93-52.74-17.66-59.88-23.29-6.17-4.86-34.85-28.41-44.67-70.12-2.75-11.66-8.59-36.48,2.85-60.57Z"/>
  <path d="M482.05,546.6c15.15,21.39,8.79,46.37,5.71,58.46-2.75,10.79-7.37,28.92-24.24,41.34-21.03,15.49-45.81,10.84-54.18,9.27-9.32-1.75-38.84-7.29-51.71-34.22-.56-1.17-11.91-25.92,0-49.9,6.85-13.79,18.29-19.98,41.17-32.37,20.85-11.29,31.27-16.94,45.47-15.39,22.97,2.51,36.39,20.84,37.78,22.81Z"/>
  <path d="M523.4,323.47c2.52,25.87-7.77,45.24-18.54,64.88-10.39,18.96-16.03,22.43-90.53,93.38-21.31,20.3-34.89,33.39-57.03,36.36-3.43.46-17.67,2.1-39.21-5.71-44.87-16.26-69.27-54.65-84.83-79.12-10.54-16.58-30.11-48.07-37.78-94.1-3.79-22.74-9.86-62.24,9.27-100.52,11.41-22.83,24.82-31.31,28.51-33.5,4.33-2.57,22.87-12.9,44.91-8.56,20.26,4,21.64,16.08,49.19,29.23,18.35,8.76,34.32,11.32,44.2,12.83,33.1,5.06,37.95-4.31,64.87,0,9.72,1.56,39.72,6.8,62.73,32.08,4.65,5.11,21.45,24.08,24.24,52.75Z"/>
  <path d="M682.13,99.63c-7.62-14.54-23.02-43.19-54.18-65.58-31.71-22.79-63.88-27.72-132.59-31.37-156.14-8.29-237.49,3.97-295.13,18.54-20.35,5.14-46.3,12.74-72.71,32.79-37.05,28.13-53.13,64.16-59.28,78.42-16.63,38.47-17.97,72.94-17.71,99.8.77,80.13,16.33,147.7,34.22,215.28,40.26,152.13,43.61,120.51,78.41,252.36,18.27,69.21,24.66,105.59,58.46,146.85,11.35,13.86,45.69,54.66,106.93,74.14,17.53,5.58,73.31,22.47,132.59,0,31.83-12.07,64.11-35.27,106.93-101.23,17.33-26.68,65.9-105.84,105.51-280.45,19.9-87.77,24.2-148.47,32.79-269.88,3.86-54.64,6.19-111.58-24.24-169.67ZM636.06,318.2c-6.46,91.24-9.68,136.86-24.64,202.82-29.77,131.22-66.27,190.71-79.29,210.76-32.18,49.56-56.44,67-80.36,76.07-44.55,16.89-86.47,4.19-99.64,0-46.02-14.64-71.83-45.3-80.36-55.71-25.4-31.01-30.2-58.35-43.93-110.36-26.15-99.09-28.67-75.32-58.93-189.65-13.44-50.78-25.14-101.57-25.71-161.79-.2-20.18.81-46.08,13.3-75,4.63-10.71,16.71-37.79,44.55-58.93,19.85-15.07,39.35-20.77,54.65-24.64,43.31-10.95,104.45-20.16,221.79-13.93,51.63,2.75,75.81,6.44,99.64,23.57,23.42,16.83,34.99,38.36,40.72,49.29,22.86,43.65,21.12,86.44,18.21,127.5Z"/>
  <path class="cls-1" d="M482.05,546.6c15.15,21.39,8.79,46.37,5.71,58.46-2.75,10.79-7.37,28.92-24.24,41.34-21.03,15.49-45.81,10.84-54.18,9.27-9.32-1.75-38.84-7.29-51.71-34.22-.56-1.17-11.91-25.92,0-49.9,6.85-13.79,18.29-19.98,41.17-32.37,20.85-11.29,31.27-16.94,45.47-15.39,22.97,2.51,36.39,20.84,37.78,22.81Z"/>
  <path class="cls-1" d="M504.86,388.35c-10.39,18.96-16.03,22.43-90.53,93.38-21.31,20.3-34.89,33.39-57.03,36.36-3.43.46-17.67,2.1-39.21-5.71-44.87-16.26-69.27-54.65-84.83-79.12-10.54-16.58-30.11-48.07-37.78-94.1-3.79-22.74-9.86-62.24,9.27-100.52,11.41-22.83,24.82-31.31,28.51-33.5,4.33-2.57,22.87-12.9,44.91-8.56,20.26,4,21.64,16.08,49.19,29.23,18.35,8.76,34.32,11.32,44.2,12.83,33.1,5.06,37.95-4.31,64.87,0,9.72,1.56,39.72,6.8,62.73,32.08,4.65,5.11,21.45,24.08,24.24,52.75,2.52,25.87-7.77,45.24-18.54,64.88Z"/>
  <path d="M504.86,388.35c-10.39,18.96-16.03,22.43-90.53,93.38-21.31,20.3-34.89,33.39-57.03,36.36-3.43.46-17.67,2.1-39.21-5.71-44.87-16.26-69.27-54.65-84.83-79.12-10.54-16.58-30.11-48.07-37.78-94.1-3.79-22.74-9.86-62.24,9.27-100.52,11.41-22.83,24.82-31.31,28.51-33.5,4.33-2.57,22.87-12.9,44.91-8.56,15.56,3.06,14.45,9.88,49.19,29.23,19.89,11.08,28.76,13.59,36.54,14.73,8.04,1.18,12.39.53,29.18-.4,25.4-1.41,38.13-2.34,43.35-1.5,9.72,1.56,39.72,6.8,62.73,32.08,4.65,5.11,21.45,24.08,24.24,52.75,2.52,25.87-7.77,45.24-18.54,64.88Z"/>
  <path d="M487.76,605.06c-2.75,10.79-7.37,28.92-24.24,41.34-21.03,15.49-45.81,10.84-54.18,9.27-9.32-1.75-38.84-7.29-51.71-34.22-.56-1.17-11.91-25.92,0-49.9,6.85-13.79,18.29-19.98,41.17-32.37,20.85-11.29,31.27-16.94,45.47-15.39,22.97,2.51,36.39,20.84,37.78,22.81,15.15,21.39,8.79,46.37,5.71,58.46Z"/>
  <path d="M739.64,125.77c10.34-6.07,24.38-.83,26.61,0,9.43,3.52,14.78,9.82,18.06,13.78,11.33,13.69,16.57,33.6,11.88,52.28-1.87,7.45-4.49,17.89-14.26,24.24-10.41,6.77-24.49,6-34.22,0-11.14-6.87-13.73-18.86-16.63-32.32-1.71-7.92-10.15-47.01,8.55-57.98Z"/>
</svg>